<mxfile host="app.diagrams.net" agent="Mozilla/5.0 (Windows NT 10.0; Win64; x64) AppleWebKit/537.36 (KHTML, like Gecko) Chrome/130.0.0.0 Safari/537.36" version="24.7.17">
  <diagram id="kgpKYQtTHZ0yAKxKKP6v" name="Page-1">
    <mxGraphModel dx="683" dy="371" grid="0" gridSize="10" guides="1" tooltips="1" connect="1" arrows="1" fold="1" page="1" pageScale="1" pageWidth="850" pageHeight="1100" math="0" shadow="0">
      <root>
        <mxCell id="0" />
        <mxCell id="1" parent="0" />
        <mxCell id="3nuBFxr9cyL0pnOWT2aG-1" value="E-OFFICE" style="shape=table;childLayout=tableLayout;startSize=40;collapsible=0;recursiveResize=0;expand=0;fillColor=none;fontStyle=1" parent="1" vertex="1">
          <mxGeometry x="51" y="530" width="700" height="520" as="geometry" />
        </mxCell>
        <mxCell id="3nuBFxr9cyL0pnOWT2aG-3" value="SURAT MASUK" style="shape=tableRow;horizontal=0;swimlaneHead=0;swimlaneBody=0;top=0;left=0;bottom=0;right=0;fillColor=none;points=[[0,0.5],[1,0.5]];portConstraint=eastwest;startSize=40;collapsible=0;recursiveResize=0;expand=0;fontStyle=1;" parent="3nuBFxr9cyL0pnOWT2aG-1" vertex="1">
          <mxGeometry y="40" width="700" height="480" as="geometry" />
        </mxCell>
        <mxCell id="3nuBFxr9cyL0pnOWT2aG-4" value="TATA USAHA" style="swimlane;swimlaneHead=0;swimlaneBody=0;connectable=0;fillColor=none;startSize=40;collapsible=0;recursiveResize=0;expand=0;fontStyle=1;" parent="3nuBFxr9cyL0pnOWT2aG-3" vertex="1">
          <mxGeometry x="40" width="150" height="480" as="geometry">
            <mxRectangle width="150" height="480" as="alternateBounds" />
          </mxGeometry>
        </mxCell>
        <mxCell id="3nuBFxr9cyL0pnOWT2aG-6" value="MULAI" style="rounded=1;whiteSpace=wrap;html=1;arcSize=50;" parent="3nuBFxr9cyL0pnOWT2aG-4" vertex="1">
          <mxGeometry x="20" y="50" width="110" height="40" as="geometry" />
        </mxCell>
        <mxCell id="eYpfPBhZfu6Fcm4IwKXz-26" style="edgeStyle=orthogonalEdgeStyle;rounded=0;orthogonalLoop=1;jettySize=auto;html=1;" parent="3nuBFxr9cyL0pnOWT2aG-4" edge="1">
          <mxGeometry relative="1" as="geometry">
            <mxPoint x="74.76" y="90" as="sourcePoint" />
            <mxPoint x="74.76" y="119" as="targetPoint" />
            <Array as="points">
              <mxPoint x="74.76" y="99" />
            </Array>
          </mxGeometry>
        </mxCell>
        <mxCell id="eYpfPBhZfu6Fcm4IwKXz-33" value="ARSIP SURAT" style="rounded=0;whiteSpace=wrap;html=1;" parent="3nuBFxr9cyL0pnOWT2aG-4" vertex="1">
          <mxGeometry x="25" y="370" width="100" height="40" as="geometry" />
        </mxCell>
        <mxCell id="eYpfPBhZfu6Fcm4IwKXz-36" value="SELESAI" style="rounded=1;whiteSpace=wrap;html=1;arcSize=50;" parent="3nuBFxr9cyL0pnOWT2aG-4" vertex="1">
          <mxGeometry x="20" y="430" width="110" height="40" as="geometry" />
        </mxCell>
        <mxCell id="eYpfPBhZfu6Fcm4IwKXz-40" value="DATA SURAT MASUK" style="rounded=0;whiteSpace=wrap;html=1;" parent="3nuBFxr9cyL0pnOWT2aG-4" vertex="1">
          <mxGeometry x="10" y="120" width="120" height="60" as="geometry" />
        </mxCell>
        <mxCell id="eYpfPBhZfu6Fcm4IwKXz-48" value="" style="endArrow=classic;html=1;rounded=0;entryX=0.5;entryY=0;entryDx=0;entryDy=0;exitX=0.5;exitY=1;exitDx=0;exitDy=0;" parent="3nuBFxr9cyL0pnOWT2aG-4" source="eYpfPBhZfu6Fcm4IwKXz-33" target="eYpfPBhZfu6Fcm4IwKXz-36" edge="1">
          <mxGeometry width="50" height="50" relative="1" as="geometry">
            <mxPoint x="40" y="430" as="sourcePoint" />
            <mxPoint x="90" y="380" as="targetPoint" />
          </mxGeometry>
        </mxCell>
        <mxCell id="3nuBFxr9cyL0pnOWT2aG-8" value="ESELON PIMPINAN" style="swimlane;swimlaneHead=0;swimlaneBody=0;connectable=0;fillColor=none;startSize=40;collapsible=0;recursiveResize=0;expand=0;fontStyle=1;" parent="3nuBFxr9cyL0pnOWT2aG-3" vertex="1">
          <mxGeometry x="190" width="150" height="480" as="geometry">
            <mxRectangle width="150" height="480" as="alternateBounds" />
          </mxGeometry>
        </mxCell>
        <mxCell id="3nuBFxr9cyL0pnOWT2aG-9" value="DISPOSISI LEVEL 1" style="rounded=0;whiteSpace=wrap;html=1;" parent="3nuBFxr9cyL0pnOWT2aG-8" vertex="1">
          <mxGeometry x="30" y="180" width="90" height="40" as="geometry" />
        </mxCell>
        <mxCell id="eYpfPBhZfu6Fcm4IwKXz-38" value="CETAK DISPOSISI&amp;nbsp;" style="shape=document;whiteSpace=wrap;html=1;boundedLbl=1;" parent="3nuBFxr9cyL0pnOWT2aG-8" vertex="1">
          <mxGeometry x="15" y="260" width="120" height="60" as="geometry" />
        </mxCell>
        <mxCell id="eYpfPBhZfu6Fcm4IwKXz-41" value="" style="endArrow=classic;html=1;rounded=0;entryX=0.5;entryY=0;entryDx=0;entryDy=0;exitX=0.5;exitY=1;exitDx=0;exitDy=0;" parent="3nuBFxr9cyL0pnOWT2aG-8" source="3nuBFxr9cyL0pnOWT2aG-9" target="eYpfPBhZfu6Fcm4IwKXz-38" edge="1">
          <mxGeometry width="50" height="50" relative="1" as="geometry">
            <mxPoint x="200" y="410" as="sourcePoint" />
            <mxPoint x="250" y="360" as="targetPoint" />
          </mxGeometry>
        </mxCell>
        <mxCell id="3nuBFxr9cyL0pnOWT2aG-11" value="ESELON PEMBANTUÂ &#xa;PIMPINAN" style="swimlane;swimlaneHead=0;swimlaneBody=0;connectable=0;fillColor=none;startSize=40;collapsible=0;recursiveResize=0;expand=0;fontStyle=1;" parent="3nuBFxr9cyL0pnOWT2aG-3" vertex="1">
          <mxGeometry x="340" width="180" height="480" as="geometry">
            <mxRectangle width="180" height="480" as="alternateBounds" />
          </mxGeometry>
        </mxCell>
        <mxCell id="eYpfPBhZfu6Fcm4IwKXz-27" value="DISPOSISI LEVEL 2" style="rounded=0;whiteSpace=wrap;html=1;" parent="3nuBFxr9cyL0pnOWT2aG-11" vertex="1">
          <mxGeometry x="45" y="218" width="90" height="40" as="geometry" />
        </mxCell>
        <mxCell id="eYpfPBhZfu6Fcm4IwKXz-42" value="CETAK DISPOSISI&amp;nbsp;" style="shape=document;whiteSpace=wrap;html=1;boundedLbl=1;" parent="3nuBFxr9cyL0pnOWT2aG-11" vertex="1">
          <mxGeometry x="30" y="300" width="120" height="60" as="geometry" />
        </mxCell>
        <mxCell id="eYpfPBhZfu6Fcm4IwKXz-43" value="" style="endArrow=classic;html=1;rounded=0;entryX=0.5;entryY=0;entryDx=0;entryDy=0;exitX=0.5;exitY=1;exitDx=0;exitDy=0;" parent="3nuBFxr9cyL0pnOWT2aG-11" edge="1">
          <mxGeometry width="50" height="50" relative="1" as="geometry">
            <mxPoint x="89.58000000000004" y="258" as="sourcePoint" />
            <mxPoint x="89.58000000000004" y="298" as="targetPoint" />
          </mxGeometry>
        </mxCell>
        <mxCell id="eYpfPBhZfu6Fcm4IwKXz-44" value="" style="edgeStyle=segmentEdgeStyle;endArrow=classic;html=1;curved=0;rounded=0;endSize=8;startSize=8;exitX=0.492;exitY=0.917;exitDx=0;exitDy=0;exitPerimeter=0;" parent="3nuBFxr9cyL0pnOWT2aG-11" source="eYpfPBhZfu6Fcm4IwKXz-38" edge="1">
          <mxGeometry width="50" height="50" relative="1" as="geometry">
            <mxPoint x="-50" y="380" as="sourcePoint" />
            <mxPoint x="260" y="300" as="targetPoint" />
            <Array as="points">
              <mxPoint x="-76" y="380" />
              <mxPoint x="260" y="380" />
            </Array>
          </mxGeometry>
        </mxCell>
        <mxCell id="eYpfPBhZfu6Fcm4IwKXz-29" value="ESELON PELAKSANA" style="swimlane;swimlaneHead=0;swimlaneBody=0;connectable=0;fillColor=none;startSize=40;collapsible=0;recursiveResize=0;expand=0;fontStyle=1;" parent="3nuBFxr9cyL0pnOWT2aG-3" vertex="1">
          <mxGeometry x="520" width="180" height="480" as="geometry">
            <mxRectangle width="180" height="480" as="alternateBounds" />
          </mxGeometry>
        </mxCell>
        <mxCell id="eYpfPBhZfu6Fcm4IwKXz-30" value="MELAKS&amp;nbsp;&lt;div&gt;PERINTAH&lt;/div&gt;" style="rounded=0;whiteSpace=wrap;html=1;" parent="eYpfPBhZfu6Fcm4IwKXz-29" vertex="1">
          <mxGeometry x="50" y="256" width="100" height="40" as="geometry" />
        </mxCell>
        <mxCell id="eYpfPBhZfu6Fcm4IwKXz-45" value="" style="edgeStyle=segmentEdgeStyle;endArrow=classic;html=1;curved=0;rounded=0;endSize=8;startSize=8;exitX=0.492;exitY=0.917;exitDx=0;exitDy=0;exitPerimeter=0;" parent="eYpfPBhZfu6Fcm4IwKXz-29" edge="1">
          <mxGeometry width="50" height="50" relative="1" as="geometry">
            <mxPoint x="-90" y="355" as="sourcePoint" />
            <mxPoint x="60" y="300" as="targetPoint" />
            <Array as="points">
              <mxPoint x="-90" y="370" />
              <mxPoint x="60" y="370" />
            </Array>
          </mxGeometry>
        </mxCell>
        <mxCell id="eYpfPBhZfu6Fcm4IwKXz-24" value="" style="edgeStyle=segmentEdgeStyle;endArrow=classic;html=1;curved=0;rounded=0;endSize=8;startSize=8;exitX=1;exitY=0.5;exitDx=0;exitDy=0;entryX=0;entryY=0.5;entryDx=0;entryDy=0;" parent="3nuBFxr9cyL0pnOWT2aG-3" source="eYpfPBhZfu6Fcm4IwKXz-40" target="3nuBFxr9cyL0pnOWT2aG-9" edge="1">
          <mxGeometry width="50" height="50" relative="1" as="geometry">
            <mxPoint x="112.5" y="180" as="sourcePoint" />
            <mxPoint x="650" y="170" as="targetPoint" />
            <Array as="points">
              <mxPoint x="200" y="150" />
              <mxPoint x="200" y="200" />
            </Array>
          </mxGeometry>
        </mxCell>
        <mxCell id="eYpfPBhZfu6Fcm4IwKXz-35" value="" style="edgeStyle=segmentEdgeStyle;endArrow=classic;html=1;curved=0;rounded=0;endSize=8;startSize=8;exitX=0.5;exitY=1;exitDx=0;exitDy=0;" parent="3nuBFxr9cyL0pnOWT2aG-3" source="eYpfPBhZfu6Fcm4IwKXz-30" target="eYpfPBhZfu6Fcm4IwKXz-33" edge="1">
          <mxGeometry width="50" height="50" relative="1" as="geometry">
            <mxPoint x="620" y="310" as="sourcePoint" />
            <mxPoint x="210" y="328" as="targetPoint" />
            <Array as="points">
              <mxPoint x="620" y="390" />
            </Array>
          </mxGeometry>
        </mxCell>
        <mxCell id="eYpfPBhZfu6Fcm4IwKXz-28" value="" style="edgeStyle=segmentEdgeStyle;endArrow=classic;html=1;curved=0;rounded=0;endSize=8;startSize=8;entryX=0;entryY=0.5;entryDx=0;entryDy=0;exitX=1;exitY=0.5;exitDx=0;exitDy=0;" parent="3nuBFxr9cyL0pnOWT2aG-3" source="3nuBFxr9cyL0pnOWT2aG-9" target="eYpfPBhZfu6Fcm4IwKXz-27" edge="1">
          <mxGeometry width="50" height="50" relative="1" as="geometry">
            <mxPoint x="300" y="260" as="sourcePoint" />
            <mxPoint x="380" y="238" as="targetPoint" />
            <Array as="points">
              <mxPoint x="330" y="200" />
              <mxPoint x="330" y="238" />
            </Array>
          </mxGeometry>
        </mxCell>
        <mxCell id="eYpfPBhZfu6Fcm4IwKXz-32" value="" style="edgeStyle=segmentEdgeStyle;endArrow=classic;html=1;curved=0;rounded=0;endSize=8;startSize=8;entryX=0;entryY=0.5;entryDx=0;entryDy=0;exitX=1;exitY=0.5;exitDx=0;exitDy=0;" parent="3nuBFxr9cyL0pnOWT2aG-3" source="eYpfPBhZfu6Fcm4IwKXz-27" target="eYpfPBhZfu6Fcm4IwKXz-30" edge="1">
          <mxGeometry width="50" height="50" relative="1" as="geometry">
            <mxPoint x="530" y="258" as="sourcePoint" />
            <mxPoint x="555" y="276" as="targetPoint" />
            <Array as="points">
              <mxPoint x="530" y="238" />
              <mxPoint x="530" y="276" />
            </Array>
          </mxGeometry>
        </mxCell>
        <mxCell id="56gJVW8EYQh7qOzdIpQb-1" value="&lt;b&gt;TATA USAHA (SET)&lt;/b&gt;" style="rounded=1;whiteSpace=wrap;html=1;" vertex="1" parent="1">
          <mxGeometry x="130" y="170" width="120" height="60" as="geometry" />
        </mxCell>
        <mxCell id="56gJVW8EYQh7qOzdIpQb-2" value="&lt;b&gt;ESELON PIMPINAN&lt;/b&gt;&lt;div&gt;&lt;br&gt;&lt;/div&gt;&lt;div&gt;1. PANGDAM&lt;/div&gt;&lt;div&gt;2. KASDAM&lt;/div&gt;" style="rounded=1;whiteSpace=wrap;html=1;align=left;" vertex="1" parent="1">
          <mxGeometry x="280" y="170" width="120" height="90" as="geometry" />
        </mxCell>
        <mxCell id="56gJVW8EYQh7qOzdIpQb-3" value="&lt;b&gt;ESELON PEMBANTU PIMPINAN&lt;/b&gt;&lt;div&gt;&lt;br&gt;&lt;/div&gt;&lt;div style=&quot;text-align: left;&quot;&gt;1. PARA ASISTEN&lt;/div&gt;&lt;div style=&quot;text-align: left;&quot;&gt;2. (YG DAPAT MENGELUARKAN SURAT AN. PANGDAM)&lt;/div&gt;" style="rounded=1;whiteSpace=wrap;html=1;" vertex="1" parent="1">
          <mxGeometry x="430" y="170" width="120" height="150" as="geometry" />
        </mxCell>
        <mxCell id="56gJVW8EYQh7qOzdIpQb-4" value="&lt;b&gt;ESELON PELAKSANA&lt;/b&gt;&lt;div&gt;&lt;br&gt;&lt;/div&gt;&lt;div style=&quot;text-align: left;&quot;&gt;1. BALAK&lt;/div&gt;&lt;div style=&quot;text-align: left;&quot;&gt;2. BATALYON&amp;nbsp;&lt;/div&gt;&lt;div style=&quot;text-align: left;&quot;&gt;3. DST&lt;/div&gt;" style="rounded=1;whiteSpace=wrap;html=1;" vertex="1" parent="1">
          <mxGeometry x="580" y="170" width="120" height="120" as="geometry" />
        </mxCell>
        <mxCell id="56gJVW8EYQh7qOzdIpQb-6" value="LEVEL USER" style="swimlane;fontStyle=0;childLayout=stackLayout;horizontal=1;startSize=30;horizontalStack=0;resizeParent=1;resizeParentMax=0;resizeLast=0;collapsible=1;marginBottom=0;whiteSpace=wrap;html=1;" vertex="1" parent="1">
          <mxGeometry x="120" y="270" width="140" height="120" as="geometry" />
        </mxCell>
        <mxCell id="56gJVW8EYQh7qOzdIpQb-7" value="TATA USAHA SATUAN" style="text;strokeColor=#d79b00;fillColor=#ffe6cc;align=left;verticalAlign=middle;spacingLeft=4;spacingRight=4;overflow=hidden;points=[[0,0.5],[1,0.5]];portConstraint=eastwest;rotatable=0;whiteSpace=wrap;html=1;" vertex="1" parent="56gJVW8EYQh7qOzdIpQb-6">
          <mxGeometry y="30" width="140" height="30" as="geometry" />
        </mxCell>
        <mxCell id="56gJVW8EYQh7qOzdIpQb-8" value="ESELON PIMPINAN SATUAN" style="text;strokeColor=none;fillColor=none;align=left;verticalAlign=middle;spacingLeft=4;spacingRight=4;overflow=hidden;points=[[0,0.5],[1,0.5]];portConstraint=eastwest;rotatable=0;whiteSpace=wrap;html=1;" vertex="1" parent="56gJVW8EYQh7qOzdIpQb-6">
          <mxGeometry y="60" width="140" height="30" as="geometry" />
        </mxCell>
        <mxCell id="56gJVW8EYQh7qOzdIpQb-9" value="ESELON PEMBANTU PIMPINAN SATUAN" style="text;align=left;verticalAlign=middle;spacingLeft=4;spacingRight=4;overflow=hidden;points=[[0,0.5],[1,0.5]];portConstraint=eastwest;rotatable=0;whiteSpace=wrap;html=1;fillColor=#ffe6cc;strokeColor=#d79b00;" vertex="1" parent="56gJVW8EYQh7qOzdIpQb-6">
          <mxGeometry y="90" width="140" height="30" as="geometry" />
        </mxCell>
        <mxCell id="56gJVW8EYQh7qOzdIpQb-10" value="" style="endArrow=none;html=1;rounded=0;entryX=0.5;entryY=1;entryDx=0;entryDy=0;" edge="1" parent="1" source="56gJVW8EYQh7qOzdIpQb-6" target="56gJVW8EYQh7qOzdIpQb-1">
          <mxGeometry width="50" height="50" relative="1" as="geometry">
            <mxPoint x="400" y="430" as="sourcePoint" />
            <mxPoint x="450" y="380" as="targetPoint" />
          </mxGeometry>
        </mxCell>
        <mxCell id="56gJVW8EYQh7qOzdIpQb-11" value="LEVEL USER" style="swimlane;fontStyle=0;childLayout=stackLayout;horizontal=1;startSize=30;horizontalStack=0;resizeParent=1;resizeParentMax=0;resizeLast=0;collapsible=1;marginBottom=0;whiteSpace=wrap;html=1;" vertex="1" parent="1">
          <mxGeometry x="420" y="360" width="140" height="120" as="geometry" />
        </mxCell>
        <mxCell id="56gJVW8EYQh7qOzdIpQb-12" value="TATA USAHA SATUAN" style="text;strokeColor=#d79b00;fillColor=#ffe6cc;align=left;verticalAlign=middle;spacingLeft=4;spacingRight=4;overflow=hidden;points=[[0,0.5],[1,0.5]];portConstraint=eastwest;rotatable=0;whiteSpace=wrap;html=1;" vertex="1" parent="56gJVW8EYQh7qOzdIpQb-11">
          <mxGeometry y="30" width="140" height="30" as="geometry" />
        </mxCell>
        <mxCell id="56gJVW8EYQh7qOzdIpQb-13" value="ESELON PIMPINAN SATUAN" style="text;strokeColor=none;fillColor=none;align=left;verticalAlign=middle;spacingLeft=4;spacingRight=4;overflow=hidden;points=[[0,0.5],[1,0.5]];portConstraint=eastwest;rotatable=0;whiteSpace=wrap;html=1;" vertex="1" parent="56gJVW8EYQh7qOzdIpQb-11">
          <mxGeometry y="60" width="140" height="30" as="geometry" />
        </mxCell>
        <mxCell id="56gJVW8EYQh7qOzdIpQb-14" value="ESELON PEMBANTU PIMPINAN SATUAN" style="text;align=left;verticalAlign=middle;spacingLeft=4;spacingRight=4;overflow=hidden;points=[[0,0.5],[1,0.5]];portConstraint=eastwest;rotatable=0;whiteSpace=wrap;html=1;fillColor=#ffe6cc;strokeColor=#d79b00;" vertex="1" parent="56gJVW8EYQh7qOzdIpQb-11">
          <mxGeometry y="90" width="140" height="30" as="geometry" />
        </mxCell>
        <mxCell id="56gJVW8EYQh7qOzdIpQb-15" value="" style="endArrow=none;html=1;rounded=0;entryX=0.5;entryY=1;entryDx=0;entryDy=0;" edge="1" parent="1" source="56gJVW8EYQh7qOzdIpQb-11">
          <mxGeometry width="50" height="50" relative="1" as="geometry">
            <mxPoint x="700" y="520" as="sourcePoint" />
            <mxPoint x="490" y="320" as="targetPoint" />
          </mxGeometry>
        </mxCell>
        <mxCell id="56gJVW8EYQh7qOzdIpQb-16" value="LEVEL USER" style="swimlane;fontStyle=0;childLayout=stackLayout;horizontal=1;startSize=30;horizontalStack=0;resizeParent=1;resizeParentMax=0;resizeLast=0;collapsible=1;marginBottom=0;whiteSpace=wrap;html=1;" vertex="1" parent="1">
          <mxGeometry x="570" y="330" width="140" height="120" as="geometry" />
        </mxCell>
        <mxCell id="56gJVW8EYQh7qOzdIpQb-17" value="TATA USAHA SATUAN" style="text;strokeColor=#d79b00;fillColor=#ffe6cc;align=left;verticalAlign=middle;spacingLeft=4;spacingRight=4;overflow=hidden;points=[[0,0.5],[1,0.5]];portConstraint=eastwest;rotatable=0;whiteSpace=wrap;html=1;" vertex="1" parent="56gJVW8EYQh7qOzdIpQb-16">
          <mxGeometry y="30" width="140" height="30" as="geometry" />
        </mxCell>
        <mxCell id="56gJVW8EYQh7qOzdIpQb-18" value="ESELON PIMPINAN SATUAN" style="text;strokeColor=none;fillColor=none;align=left;verticalAlign=middle;spacingLeft=4;spacingRight=4;overflow=hidden;points=[[0,0.5],[1,0.5]];portConstraint=eastwest;rotatable=0;whiteSpace=wrap;html=1;" vertex="1" parent="56gJVW8EYQh7qOzdIpQb-16">
          <mxGeometry y="60" width="140" height="30" as="geometry" />
        </mxCell>
        <mxCell id="56gJVW8EYQh7qOzdIpQb-19" value="ESELON PEMBANTU PIMPINAN SATUAN" style="text;align=left;verticalAlign=middle;spacingLeft=4;spacingRight=4;overflow=hidden;points=[[0,0.5],[1,0.5]];portConstraint=eastwest;rotatable=0;whiteSpace=wrap;html=1;fillColor=#ffe6cc;strokeColor=#d79b00;" vertex="1" parent="56gJVW8EYQh7qOzdIpQb-16">
          <mxGeometry y="90" width="140" height="30" as="geometry" />
        </mxCell>
        <mxCell id="56gJVW8EYQh7qOzdIpQb-20" value="" style="endArrow=none;html=1;rounded=0;entryX=0.5;entryY=1;entryDx=0;entryDy=0;" edge="1" parent="1" source="56gJVW8EYQh7qOzdIpQb-16">
          <mxGeometry width="50" height="50" relative="1" as="geometry">
            <mxPoint x="850" y="490" as="sourcePoint" />
            <mxPoint x="640" y="290" as="targetPoint" />
          </mxGeometry>
        </mxCell>
      </root>
    </mxGraphModel>
  </diagram>
</mxfile>
